<svg width="159" height="158" viewBox="0 0 159 158" fill="none" xmlns="http://www.w3.org/2000/svg">
<path d="M133.812 115.784C133.812 145.656 109.619 145.656 79.5 145.656C49.3813 145.656 25.1875 145.656 25.1875 115.784C25.1875 85.9125 49.6281 37.0312 79.5 37.0312C109.372 37.0312 133.812 85.6656 133.812 115.784Z" fill="#DBB471"/>
<path opacity="0.5" d="M133.813 115.784C133.813 105.663 131.098 93.3188 126.16 81.4688C127.148 89.1219 125.173 102.7 101.72 107.884C68.3914 115.044 85.6727 124.425 72.5883 125.659C61.4789 126.647 31.8539 122.203 25.9289 105.416C25.4352 109.119 24.9414 112.575 24.9414 116.031C25.1883 145.656 49.6289 145.656 79.5008 145.656C109.373 145.656 133.813 145.656 133.813 115.784Z" fill="#89664C"/>
<path d="M94.0651 101.466C93.0776 96.528 88.8807 95.0468 84.437 94.7999V87.8874C85.6713 88.3811 87.1526 89.1218 88.1401 89.8624C90.1151 91.0968 92.0901 87.8874 90.1151 86.653C88.3869 85.6655 86.412 84.678 84.437 83.9374V75.7905C84.437 73.3218 80.7338 73.3218 80.7338 75.7905V82.9499C78.7588 82.703 76.7838 82.703 74.8088 82.9499C74.562 81.2218 74.0682 79.4937 73.5745 77.7655C73.0807 75.2968 69.3776 76.2843 70.1182 78.753C70.612 80.4811 70.8588 82.2093 71.3526 83.9374C71.1057 83.9374 71.1057 83.9374 70.8588 84.1843C65.9213 86.1593 62.712 91.0968 66.4151 95.7874C68.1432 98.0093 70.3651 98.7499 72.8338 99.2437C73.0807 102.453 73.0807 105.662 73.0807 108.872C71.3526 107.884 69.8713 106.403 68.637 105.169C66.9088 103.441 64.4401 106.156 65.9213 107.884C68.1432 110.353 70.612 112.081 73.0807 113.316C73.0807 116.031 73.3276 118.747 73.5745 121.462C73.8213 123.931 77.5245 123.931 77.2776 121.462C77.0307 118.994 76.7838 116.772 76.7838 114.303C78.2651 114.55 79.7463 114.55 81.2276 114.55C81.4745 117.019 81.7213 119.487 81.9682 122.203C82.2151 124.672 85.9182 124.672 85.6713 122.203C85.4245 119.487 85.1776 116.772 84.9307 113.809C90.362 111.834 95.2995 107.637 94.0651 101.466ZM80.7338 86.653V94.7999C79.4995 94.7999 78.512 95.0468 77.5245 95.0468H76.2901L75.5495 86.1593C77.2776 86.1593 79.0057 86.4061 80.7338 86.653ZM71.8463 94.553C70.8588 94.3061 69.8713 93.5655 68.8838 92.8249C66.662 90.603 69.8713 88.628 71.8463 87.6405C72.0932 90.1093 72.3401 92.3312 72.587 94.7999C72.3401 94.7999 72.0932 94.7999 71.8463 94.553ZM79.9932 110.353C78.7588 110.6 77.7713 110.353 76.7838 110.106C76.537 106.403 76.537 102.7 76.537 98.7499C78.0182 98.7499 79.4994 98.503 80.9807 98.503C80.9807 102.453 81.2276 106.156 81.2276 110.106C80.7338 110.353 80.487 110.353 79.9932 110.353ZM88.1401 107.637C87.1526 108.378 85.9182 108.872 84.9307 109.366C84.6838 105.662 84.6838 102.206 84.6838 98.503H85.9182C90.6088 99.4905 91.8432 104.675 88.1401 107.637Z" fill="#89664C"/>
<path d="M84.4359 135.781H78.7578V145.656L101.717 158L153.561 141.953V133.312L134.552 122.203L84.4359 135.781Z" fill="#699635"/>
<path d="M79.5 130.103C79.5 130.103 85.425 139.731 102.213 148.125C102.213 148.125 128.381 146.891 153.562 130.103C153.562 130.103 138.997 122.944 134.8 113.562C134.8 113.562 124.925 127.388 79.5 130.103Z" fill="#83BF4F"/>
<path d="M68.3898 135.534L73.8211 135.288L74.5617 144.422L53.0836 158L1.48672 146.891L0.746094 138.744L18.2742 126.647L68.3898 135.534Z" fill="#699635"/>
<path d="M72.5875 129.856C72.5875 129.856 67.4031 139.484 51.85 148.619C51.85 148.619 26.4219 149.359 0.5 135.781C0.5 135.781 14.325 127.881 17.5344 118.5C17.5344 118.5 28.3969 130.844 72.5875 129.856Z" fill="#83BF4F"/>
<path d="M60.2453 132.572C60.2453 132.572 59.5047 134.547 62.9609 134.794L53.8266 142.447C53.8266 142.447 48.3953 141.953 47.1609 145.656C47.1609 145.656 24.9422 143.187 10.6234 136.769C10.6234 136.769 13.5859 134.547 9.88281 133.066C9.88281 133.066 14.0797 130.103 15.0672 127.387C15.0672 127.387 19.0172 127.881 20.2516 124.919C20.7453 124.672 35.5578 133.559 60.2453 132.572Z" stroke="#699635" stroke-width="0.5" stroke-miterlimit="10"/>
<path d="M22.2258 136.028C24.8163 136.028 26.9164 134.591 26.9164 132.819C26.9164 131.046 24.8163 129.609 22.2258 129.609C19.6352 129.609 17.5352 131.046 17.5352 132.819C17.5352 134.591 19.6352 136.028 22.2258 136.028Z" fill="#699635"/>
<path d="M47.4078 128.869C47.4078 128.869 41.7297 136.275 29.3859 146.397L30.1266 153.063L21.4859 151.088L20.9922 143.928C20.9922 143.928 33.5828 132.325 36.2984 126.647C36.0516 126.647 40.4953 128.128 47.4078 128.869ZM104.436 127.141C104.436 127.141 106.658 133.066 123.445 143.928V151.088L133.073 148.125V140.719C133.073 140.719 121.47 132.572 114.558 124.425L104.436 127.141Z" fill="#F9F3D9"/>
<path d="M90.3625 119.241L84.9313 118.994L84.4375 129.116L106.409 143.187L158.006 129.116L158.253 120.228L140.231 107.637L90.3625 119.241Z" fill="#699635"/>
<path d="M85.918 113.069C85.918 113.069 91.3492 123.437 107.396 132.819C107.396 132.819 133.071 132.819 158.499 117.019C158.499 117.019 144.427 108.872 140.971 98.75C140.971 98.75 130.355 112.575 85.918 113.069Z" fill="#83BF4F"/>
<path d="M97.0281 115.784C97.0281 115.784 98.2625 117.759 94.3125 118.5L104.681 126.647C104.681 126.647 110.606 125.166 112.581 128.622C112.581 128.622 137.269 124.178 148.625 118.253C148.625 118.253 144.922 116.525 148.625 114.303C148.625 114.303 144.181 110.6 142.453 108.131C142.453 108.131 138.256 109.366 136.034 106.403C136.034 106.65 127.147 114.55 97.0281 115.784Z" stroke="#699635" stroke-width="0.5" stroke-miterlimit="10"/>
<path d="M116.037 121.956C115.049 123.191 111.84 123.684 109.125 122.944C106.409 122.203 105.175 120.475 106.162 119.241C107.15 118.006 110.359 117.513 113.074 118.253C115.79 118.994 117.024 120.475 116.037 121.956Z" fill="#699635"/>
<path d="M111.102 111.094C111.102 111.094 117.027 118.994 129.617 129.609L129.37 137.016L138.011 134.547L138.258 126.647C138.258 126.647 125.42 114.303 122.211 108.378C122.458 108.378 118.261 110.106 111.102 111.094Z" fill="#F9F3D9"/>
<path d="M114.062 4.9375C114.062 19.9969 94.5594 44.4375 79.5 44.4375C64.4406 44.4375 44.9375 22.4656 44.9375 7.40625C44.9375 -7.65312 47.1594 7.40625 62.2188 7.40625C64.4406 7.40625 74.8094 0 79.5 0C82.7094 0 91.8438 7.40625 96.7812 7.40625C109.866 7.40625 114.062 -6.41875 114.062 4.9375Z" fill="#DBB471"/>
<path d="M75.0555 32.8344C73.5743 33.8219 66.4149 33.0812 64.193 34.8094C61.2305 37.0312 65.4274 42.2156 62.4649 45.425C56.5399 51.35 51.8493 58.0156 53.3305 61.7187C55.7993 68.1375 60.4899 49.8687 64.6868 56.7812C68.8837 63.6937 68.143 52.0906 74.5618 58.0156C80.9805 63.9406 75.5493 47.4 81.7212 54.5594C87.893 61.7187 88.1399 69.8656 92.5837 69.8656C97.768 69.8656 87.1524 50.3625 94.0649 55.0531C100.977 59.7437 108.631 58.0156 101.718 50.8562C99.4962 48.6344 96.5337 44.6844 93.0774 41.2281C91.843 39.9937 92.8305 33.575 91.5962 32.5875C90.1149 31.3531 86.4118 35.3031 84.9305 34.5625C81.968 33.0812 82.9555 35.7969 78.5118 36.5375C75.5493 37.525 78.018 30.8594 75.0555 32.8344Z" fill="#89664C"/>
<path d="M46.6638 47.4C56.2919 38.2656 73.8201 43.45 84.1888 47.8937C94.3107 52.3375 100.483 38.2656 94.0638 31.1062C90.3607 26.9094 84.4357 31.8469 82.2138 34.8094C79.7451 37.7719 77.7701 40.9812 75.0544 43.9437C71.1044 48.3875 61.4763 44.6844 64.4388 38.5125C67.6482 32.0937 81.2263 39.5 85.6701 40.7344C94.3107 43.2031 103.445 44.1906 112.086 40.9812C115.048 39.9937 113.814 35.0562 110.851 36.2906C101.223 39.7469 91.5951 37.525 82.4607 34.5625C77.7701 33.0812 70.3638 29.1312 65.4263 31.3531C51.3544 38.0187 64.4388 57.0281 76.2888 49.6219C79.0044 47.8937 80.7326 45.1781 82.7076 42.7094C83.9419 41.2281 90.1138 31.8469 91.5951 36.5375C92.3357 39.0062 91.5951 43.45 88.8794 44.1906C87.1513 44.9312 83.6951 42.4625 81.9669 41.9687C78.7576 40.7344 75.5482 39.7469 72.0919 39.0062C62.9576 37.0312 50.6138 37.525 43.4544 44.1906C40.9857 46.1656 44.4419 49.6219 46.6638 47.4Z" fill="#E8E8E8"/>
<path d="M111.1 1.23438C108.631 3.20938 104.188 7.40625 96.7812 7.40625C91.8438 7.40625 82.7094 0 79.5 0C74.8094 0 64.4406 7.40625 62.2188 7.40625C54.0719 7.40625 49.6281 3.20938 47.4062 1.48125C47.4062 1.48125 50.1219 12.5906 58.5156 18.2688C64.6875 22.2188 63.9469 17.5281 67.1562 13.0844C70.3656 8.64063 72.5875 6.41875 78.2656 17.5281C81.2281 23.7 86.9062 0.740625 91.35 8.14687C99.4969 21.725 102.459 14.3188 111.1 1.23438Z" fill="#89664C"/>
<path d="M129.861 129.362L129.614 136.769L138.255 134.3L138.501 126.4C138.501 126.647 133.317 128.622 129.861 129.362ZM123.442 144.175V151.334L133.07 148.372V140.966C132.823 140.719 130.355 142.2 123.442 144.175ZM29.3827 146.15L30.1234 153.062L21.4827 151.087L20.989 143.928C20.7421 143.928 24.1984 145.162 29.3827 146.15Z" fill="#DBB471"/>
</svg>
